<?xml version="1.0" encoding="utf-8"?>
<!-- Generator: Adobe Illustrator 23.0.2, SVG Export Plug-In . SVG Version: 6.00 Build 0)  -->
<svg version="1.1" id="Capa_1" xmlns="http://www.w3.org/2000/svg" xmlns:xlink="http://www.w3.org/1999/xlink" x="0px" y="0px"
	 viewBox="0 0 480 480" style="enable-background:new 0 0 480 480;" xml:space="preserve">
<style type="text/css">
	.st0{opacity:0.8;}
	.st1{fill:#FFFFFF;}
</style>
<g class="st0">
	<g>
		<path class="st1" d="M440,0H104C81.9,0,64,17.9,64,40v376H8c-4.4,0-8,3.6-8,8v16c0,22.1,17.9,40,40,40h336c22.1,0,40-17.9,40-40
			V251.3l49.7-49.7c9.8-9.8,9.8-25.6,0-35.3s-25.6-9.8-35.3,0L416,180.7V64h56c4.4,0,8-3.6,8-8V40C480,17.9,462.1,0,440,0z M40,464
			c-13.3,0-24-10.7-24-24v-8h320v8c0,2.5,0.3,5,0.8,7.4c0.1,0.8,0.4,1.5,0.6,2.2c0.4,1.6,0.9,3.2,1.5,4.8c0.3,0.8,0.6,1.6,1,2.3
			c0.7,1.5,1.5,2.9,2.3,4.2c0.4,0.7,0.8,1.4,1.3,2c0.2,0.3,0.4,0.7,0.6,1H40z M400,440c0,13.3-10.7,24-24,24s-24-10.7-24-24v-16
			c0-4.4-3.6-8-8-8H80V40c0-13.3,10.7-24,24-24h304c-0.2,0.3-0.4,0.7-0.6,1c-0.5,0.6-0.9,1.3-1.3,2c-0.9,1.4-1.6,2.8-2.3,4.2
			c-0.4,0.8-0.7,1.5-1,2.3c-0.6,1.6-1.1,3.2-1.5,4.8c-0.2,0.7-0.4,1.5-0.6,2.2c-0.5,2.4-0.7,4.9-0.7,7.4v156.7L298.3,298.3
			c-1,1-1.8,2.3-2.1,3.7l-8,32c-0.7,2.7,0.1,5.6,2.1,7.6c0.7,0.6,1.5,1.2,2.3,1.5c0.2,0.1,0.4,0.2,0.6,0.3c0.9,0.3,1.8,0.5,2.7,0.5
			h0c0.7,0,1.3-0.1,1.9-0.2l32-8c1.4-0.4,2.7-1.1,3.7-2.1l66.3-66.3V440z M441.7,177.7c3.5-3.4,9.1-3.4,12.7,0
			c3.5,3.5,3.5,9.2,0,12.7l-6.3,6.3L435.3,184L441.7,177.7z M424,195.3l12.7,12.7L323.9,320.8L307,325l4.2-16.9L424,195.3z M464,48
			h-48v-8c0-13.3,10.7-24,24-24s24,10.7,24,24V48z"/>
	</g>
</g>
<g class="st0">
	<g>
		<rect x="152" y="48" class="st1" width="176" height="16"/>
	</g>
</g>
<g class="st0">
	<g>
		<path class="st1" d="M178.3,82.3L163.7,97c-1.1-0.6-2.4-1-3.7-1h-40c-4.4,0-8,3.6-8,8v40c0,4.4,3.6,8,8,8h40c4.4,0,8-3.6,8-8
			v-28.7l21.7-21.7L178.3,82.3z M152,136h-24v-24h20.7l-10.3,10.3l11.3,11.3l2.3-2.3V136z"/>
	</g>
</g>
<g class="st0">
	<g>
		<rect x="200" y="96" class="st1" width="168" height="16"/>
	</g>
</g>
<g class="st0">
	<g>
		<rect x="200" y="128" class="st1" width="136" height="16"/>
	</g>
</g>
<g class="st0">
	<g>
		<path class="st1" d="M178.3,162.3L163.7,177c-1.1-0.6-2.4-1-3.7-1h-40c-4.4,0-8,3.6-8,8v40c0,4.4,3.6,8,8,8h40c4.4,0,8-3.6,8-8
			v-28.7l21.7-21.7L178.3,162.3z M152,216h-24v-24h20.7l-10.3,10.3l11.3,11.3l2.3-2.3V216z"/>
	</g>
</g>
<g class="st0">
	<g>
		<rect x="200" y="176" class="st1" width="168" height="16"/>
	</g>
</g>
<g class="st0">
	<g>
		<rect x="200" y="208" class="st1" width="136" height="16"/>
	</g>
</g>
<g class="st0">
	<g>
		<path class="st1" d="M178.3,242.3L163.7,257c-1.1-0.6-2.4-1-3.7-1h-40c-4.4,0-8,3.6-8,8v40c0,4.4,3.6,8,8,8h40c4.4,0,8-3.6,8-8
			v-28.7l21.7-21.7L178.3,242.3z M152,296h-24v-24h20.7l-10.3,10.3l11.3,11.3l2.3-2.3V296z"/>
	</g>
</g>
<g class="st0">
	<g>
		<rect x="200" y="256" class="st1" width="104" height="16"/>
	</g>
</g>
<g class="st0">
	<g>
		<rect x="200" y="288" class="st1" width="72" height="16"/>
	</g>
</g>
<g class="st0">
	<g>
		<path class="st1" d="M178.3,322.3L163.7,337c-1.1-0.6-2.4-1-3.7-1h-40c-4.4,0-8,3.6-8,8v40c0,4.4,3.6,8,8,8h40c4.4,0,8-3.6,8-8
			v-28.7l21.7-21.7L178.3,322.3z M152,376h-24v-24h20.7l-10.3,10.3l11.3,11.3l2.3-2.3V376z"/>
	</g>
</g>
<g class="st0">
	<g>
		<rect x="200" y="336" class="st1" width="72" height="16"/>
	</g>
</g>
<g class="st0">
	<g>
		<rect x="200" y="368" class="st1" width="136" height="16"/>
	</g>
</g>
</svg>
