<?xml version="1.0" encoding="utf-8"?>
<!-- Generator: Adobe Illustrator 23.0.2, SVG Export Plug-In . SVG Version: 6.00 Build 0)  -->
<svg version="1.1" id="Capa_1" xmlns="http://www.w3.org/2000/svg" xmlns:xlink="http://www.w3.org/1999/xlink" x="0px" y="0px"
	 viewBox="0 0 513.2 513.2" style="enable-background:new 0 0 513.2 513.2;" xml:space="preserve">
<style type="text/css">
	.st0{fill:#C1C1C1;}
</style>
<g>
	<g>
		<g>
			<path class="st0" d="M405.9,486.7c0,2.8-2.3,5.1-5.1,5.1H70.2c-2.8,0.2-5.3-1.9-5.5-4.7c0-0.1,0-0.3,0-0.4V34.2
				c0-4-0.7-7.9-1.9-11.6h329.1c7.9,0.1,14.2,6.5,14.2,14.4c0,0,0,0.1,0,0.1v188.2h21.3V37c0.1-19.7-15.8-35.7-35.5-35.8h-351
				c-8.3-2.5-17.3-1.1-24.5,3.7C6.3,12,0.5,23.4,0.6,35.5v77.8c-0.5,14.2,10.6,26.1,24.8,26.6c0,0,0,0,0,0h17.8v346.9
				c0,14.6,11.8,26.5,26.5,26.5h330.7c14.6,0.2,26.6-11.4,26.9-26c0-0.1,0-0.3,0-0.4v-90.9h-21.3V486.7z M43.3,118.5H25.5
				c-1.7,0-3.5-2.1-3.5-5.1V35.5c-0.1-5.1,2.1-9.9,6.1-13c1.3-0.9,3-1.4,4.6-1.4v1.4h4.5c4,2.5,6.3,6.9,6.2,11.6L43.3,118.5
				L43.3,118.5z"/>
			<path class="st0" d="M509.5,250.5l-33.2-33.2c-4.2-4.1-10.9-4.1-15,0L295.6,383c-0.9,0.9-1.6,2-2.1,3.2l-27.6,60.7
				c-2.4,5.4,0,11.7,5.4,14.1c2.8,1.2,5.9,1.2,8.7,0l60.7-27.6c1.2-0.5,2.3-1.2,3.2-2.1l165.7-165.7
				C513.6,261.4,513.6,254.6,509.5,250.5z M297,429.8l9.5-21.3l11.4,11.4L297,429.8z M336.3,408.5l-18-17.9l111.9-112l18.5,18.1
				L336.3,408.5z M463.3,281.5l-18-18l23.6-23.6l18,18L463.3,281.5z"/>
			<rect x="139.3" y="75.9" class="st0" width="192" height="21.3"/>
			<rect x="139.3" y="150.5" class="st0" width="192" height="21.3"/>
			<rect x="139.3" y="225.2" class="st0" width="192" height="21.3"/>
			<rect x="139.3" y="299.9" class="st0" width="85.3" height="21.3"/>
			<rect x="256.6" y="299.9" class="st0" width="21.3" height="21.3"/>
			<rect x="309.9" y="299.9" class="st0" width="21.3" height="21.3"/>
		</g>
	</g>
</g>
</svg>
