<?xml version="1.0" encoding="utf-8"?>
<!-- Generator: Adobe Illustrator 23.0.2, SVG Export Plug-In . SVG Version: 6.00 Build 0)  -->
<svg version="1.1" id="Capa_1" xmlns="http://www.w3.org/2000/svg" xmlns:xlink="http://www.w3.org/1999/xlink" x="0px" y="0px"
	 viewBox="0 0 513.2 513.2" style="enable-background:new 0 0 513.2 513.2;" xml:space="preserve">
<style type="text/css">
	.st0{fill:#C1C1C1;}
</style>
<g>
	<g>
		<g>
			<path class="st0" d="M126.8,172.5c0,1-0.7,1.8-1.6,1.8h-103c-0.9,0.1-1.7-0.7-1.7-1.7c0,0,0-0.1,0-0.1V12.1
				c0-1.4-0.2-2.8-0.6-4.1h102.5c2.5,0,4.4,2.3,4.4,5.1v0v66.7h6.6V13.1c0-7-4.9-12.7-11.1-12.7H13.1C10.6-0.5,7.8,0,5.5,1.7
				c-3.1,2.5-5,6.6-4.9,10.8v27.6c-0.2,5,3.3,9.3,7.7,9.4l0,0h5.5v123c0,5.2,3.7,9.4,8.3,9.4h103c4.5,0.1,8.3-4,8.4-9.2
				c0,0,0-0.1,0-0.1v-32.2h-6.6L126.8,172.5L126.8,172.5z M13.9,42H8.3c-0.5,0-1.1-0.7-1.1-1.8V12.6c0-1.8,0.7-3.5,1.9-4.6
				c0.4-0.3,0.9-0.5,1.4-0.5V8H12c1.2,0.9,2,2.4,1.9,4.1L13.9,42L13.9,42z"/>
			<path class="st0" d="M159.1,88.8L148.8,77c-1.3-1.5-3.4-1.5-4.7,0l-51.6,58.7c-0.3,0.3-0.5,0.7-0.7,1.1l-8.6,21.5
				c-0.7,1.9,0,4.1,1.7,5c0.9,0.4,1.8,0.4,2.7,0l18.9-9.8c0.4-0.2,0.7-0.4,1-0.7l51.6-58.7C160.4,92.7,160.4,90.2,159.1,88.8z
				 M92.9,152.3l3-7.6l3.6,4L92.9,152.3z M105.2,144.8l-5.6-6.3l34.9-39.7l5.8,6.4L105.2,144.8z M144.7,99.8l-5.6-6.4l7.4-8.4
				l5.6,6.4L144.7,99.8z"/>
			<rect x="43.8" y="26.9" class="st0" width="59.8" height="7.6"/>
			<rect x="43.8" y="53.3" class="st0" width="59.8" height="7.6"/>
			<rect x="43.8" y="79.8" class="st0" width="59.8" height="7.6"/>
			<rect x="43.8" y="106.3" class="st0" width="26.6" height="7.6"/>
			<rect x="80.3" y="106.3" class="st0" width="6.6" height="7.6"/>
			<rect x="96.9" y="106.3" class="st0" width="6.6" height="7.6"/>
		</g>
	</g>
</g>
</svg>
