<?xml version="1.0" encoding="utf-8"?>
<!-- Generator: Adobe Illustrator 23.0.2, SVG Export Plug-In . SVG Version: 6.00 Build 0)  -->
<svg version="1.1" id="Layer_1" xmlns="http://www.w3.org/2000/svg" xmlns:xlink="http://www.w3.org/1999/xlink" x="0px" y="0px"
	 viewBox="0 0 496 496" style="enable-background:new 0 0 496 496;" xml:space="preserve">
<style type="text/css">
	.st0{opacity:0.85;fill:#FFFFFF;}
</style>
<path class="st0" d="M488,256c4.4,0,8-3.6,8-8V56c0-4.4-3.6-8-8-8h-56.8c0.5-2.6,0.8-5.3,0.8-8c0-22.1-17.9-40-40-40s-40,17.9-40,40
	c0,2.7,0.3,5.4,0.8,8H296c-4.4,0-8,3.6-8,8v59.3c-5-2.2-10.4-3.3-16-3.3c-22.1,0-40,17.9-40,40s17.9,40,40,40c5.6,0,11-1.2,16-3.3
	V248c0,4.4,3.6,8,8,8h40v80c0,0.9,0.1,1.7,0.4,2.5l6.1,18.2l-18.9,12.6c-2.7,1.8-4,5-3.4,8.2l8,40c0.2,1.3,0.8,2.4,1.6,3.4
	l30.3,37.8V496h16v-40c0-1.8-0.6-3.6-1.8-5l-30.8-38.5l-6.6-32.8l10.8-7.2l4.7,14.1l15.2-5.1L352,334.7V232c0-4.4,3.6-8,8-8
	s8,3.6,8,8v88c0,3.5,2.3,6.6,5.7,7.7c3.4,1,7-0.3,9-3.2l13.6-20.4h7.4l13.6,20.4c1.5,2.2,4,3.6,6.7,3.6h11.7l13.6,20.4
	c1.5,2.2,4,3.6,6.7,3.6h11.7l12.3,18.4v42.8L449.8,451c-1.1,1.4-1.8,3.2-1.8,5v40h16v-37.2l30.2-37.8c1.1-1.4,1.8-3.2,1.8-5v-48
	c0-1.6-0.5-3.1-1.3-4.4l-16-24c-1.5-2.2-4-3.6-6.7-3.6h-11.7l-13.6-20.4c-1.5-2.2-4-3.6-6.7-3.6h-11.7l-13.6-20.4
	c-1.5-2.2-4-3.6-6.7-3.6h-16c-2.7,0-5.2,1.3-6.7,3.6l-1.3,2V256H488z M360,208c-13.2,0-24,10.8-24,24v8h-32v-66.8
	c0-3.3-2.1-6.3-5.2-7.5c-3.1-1.2-6.6-0.3-8.8,2.2c-4.6,5.2-11.1,8.1-18,8.1c-13.2,0-24-10.8-24-24s10.8-24,24-24
	c6.9,0,13.4,3,18,8.1c2.2,2.5,5.7,3.4,8.8,2.2c3.1-1.2,5.2-4.2,5.2-7.5V64h60.3c2.9,0,5.5-1.5,6.9-4c1.4-2.5,1.4-5.5,0-8
	c-2.1-3.6-3.2-7.8-3.2-12c0-13.2,10.8-24,24-24s24,10.8,24,24c0,4.2-1.1,8.4-3.2,12c-1.4,2.5-1.4,5.5,0,8c1.4,2.5,4.1,4,6.9,4H480
	v176h-96v-8C384,218.8,373.2,208,360,208z"/>
<path class="st0" d="M8,256h59.3c-2.2,5-3.3,10.4-3.3,16c0,22.1,17.9,40,40,40s40-17.9,40-40c0-5.6-1.2-11-3.3-16H200
	c4.4,0,8-3.6,8-8v-74.8c0-3.3-2.1-6.3-5.2-7.5c-3.1-1.2-6.6-0.3-8.8,2.2c-4.6,5.2-11.1,8.1-18,8.1c-13.2,0-24-10.8-24-24
	s10.8-24,24-24c6.9,0,13.4,3,18,8.1c2.2,2.5,5.7,3.4,8.8,2.2s5.2-4.2,5.2-7.5V56c0-4.4-3.6-8-8-8H8c-4.4,0-8,3.6-8,8v192
	C0,252.4,3.6,256,8,256z M16,64h176v51.3c-5-2.2-10.4-3.3-16-3.3c-22.1,0-40,17.9-40,40s17.9,40,40,40c5.6,0,11-1.2,16-3.3V240
	h-66.8c-3.3,0-6.3,2.1-7.5,5.2c-1.2,3.1-0.3,6.6,2.2,8.8c5.2,4.6,8.1,11.1,8.1,18c0,13.2-10.8,24-24,24s-24-10.8-24-24
	c0-6.9,3-13.4,8.1-18c2.5-2.2,3.4-5.7,2.2-8.8c-1.2-3.1-4.2-5.2-7.5-5.2H16V64z"/>
<path class="st0" d="M224,392c-5.6,0-11,1.2-16,3.3V336c0-4.4-3.6-8-8-8h-74.8c-3.3,0-6.3,2.1-7.5,5.2c-1.2,3.1-0.3,6.6,2.2,8.8
	c5.2,4.6,8.1,11.1,8.1,18c0,13.2-10.8,24-24,24s-24-10.8-24-24c0-6.9,3-13.4,8.1-18c2.5-2.2,3.4-5.7,2.2-8.8
	c-1.2-3.1-4.2-5.2-7.5-5.2H8c-4.4,0-8,3.6-8,8v160h16V344h51.3c-2.2,5-3.3,10.4-3.3,16c0,22.1,17.9,40,40,40s40-17.9,40-40
	c0-5.6-1.2-11-3.3-16H192v66.8c0,3.3,2.1,6.3,5.2,7.5c3.1,1.2,6.6,0.3,8.8-2.2c4.6-5.2,11.1-8.1,18-8.1c13.2,0,24,10.8,24,24
	s-10.8,24-24,24c-6.9,0-13.4-3-18-8.1c-2.2-2.5-5.7-3.4-8.8-2.2c-3.1,1.2-5.2,4.2-5.2,7.5V496h16v-27.3c5,2.2,10.4,3.3,16,3.3
	c22.1,0,40-17.9,40-40S246.1,392,224,392z"/>
<path class="st0" d="M448,224h16V88c0-4.4-3.6-8-8-8H320v16h128V224z"/>
<path class="st0" d="M176,80H40c-4.4,0-8,3.6-8,8v136h16V96h128V80z"/>
<path class="st0" d="M32,360h16v136H32V360z"/>
</svg>
