<?xml version="1.0" encoding="utf-8"?>
<!-- Generator: Adobe Illustrator 23.0.2, SVG Export Plug-In . SVG Version: 6.00 Build 0)  -->
<svg version="1.1" id="Capa_1" xmlns="http://www.w3.org/2000/svg" xmlns:xlink="http://www.w3.org/1999/xlink" x="0px" y="0px"
	 viewBox="0 0 512 512" style="enable-background:new 0 0 512 512;" xml:space="preserve">
<style type="text/css">
	.st0{opacity:0.8;}
	.st1{fill:#FFFFFF;}
</style>
<g class="st0">
	<g>
		<path class="st1" d="M125.8,153.9c-69.2,0-125.5,56.3-125.5,125.5c0,43,20.4,89.2,60.8,137.3c6,7.2,12,13.8,17.7,19.8
			c-26,7.1-41.7,19.9-41.7,34.8c0,26.4,45.7,40.6,88.7,40.6c43,0,88.7-14.2,88.7-40.6c0-14.9-15.6-27.7-41.6-34.8
			c10.4-11,21.6-23.9,32.2-38.3c2.5-3.3,1.7-8-1.6-10.5c-3.3-2.5-8-1.7-10.5,1.6c-12.8,17.4-26.7,32.7-38.8,44.8
			c-1.4,0.7-2.5,1.8-3.3,3.2c-10.8,10.7-20,18.6-25.1,22.9c-5.1-4.3-14.1-12.1-24.8-22.6c-0.8-1.7-2.1-3-3.8-3.7
			c-34-34.2-82-93.3-82-154.6c0-60.9,49.6-110.5,110.5-110.5s110.5,49.6,110.5,110.5c0,26.6-9.1,55.4-27,85.4
			c-2.1,3.6-0.9,8.2,2.6,10.3s8.2,0.9,10.3-2.6c19.3-32.4,29.1-63.7,29.1-93.1C251.3,210.2,195,153.9,125.8,153.9z M121.2,476
			c1.4,1,3,1.6,4.6,1.6s3.2-0.5,4.6-1.6c0.9-0.7,13.5-10.5,30.2-26.8c25.3,5.2,38.9,15.1,38.9,22.3c0,5.3-7.3,11.7-19.1,16.5
			c-14.5,5.9-33.9,9.1-54.6,9.1c-45,0-73.7-15.2-73.7-25.6c0-7.2,13.6-17.1,39-22.3C107.8,465.6,120.4,475.4,121.2,476z"/>
	</g>
</g>
<g class="st0">
	<g>
		<path class="st1" d="M125.8,224.9c-11.9,0-23.2,3.7-32.7,10.8c-3.3,2.5-4,7.2-1.5,10.5c2.5,3.3,7.2,4,10.5,1.5
			c6.9-5.1,15.1-7.9,23.7-7.9c21.8,0,39.6,17.7,39.6,39.6c0,21.8-17.7,39.6-39.6,39.6s-39.6-17.8-39.6-39.6c0-3.7,0.5-7.4,1.5-10.9
			c1.1-4-1.2-8.1-5.1-9.3c-4-1.1-8.1,1.2-9.3,5.1c-1.4,4.9-2.1,10-2.1,15.1c0,30.1,24.5,54.6,54.6,54.6c30.1,0,54.6-24.5,54.6-54.6
			C180.4,249.3,155.9,224.9,125.8,224.9z"/>
	</g>
</g>
<g class="st0">
	<g>
		<path class="st1" d="M453,218.1c3.8-4.1,7.8-8.5,11.7-13.2c31.3-37.3,47.1-73.2,47.1-106.7c0-54.2-44.1-98.2-98.2-98.2
			C374,0,338.5,23.5,323,60c-1.6,3.8,0.2,8.2,4,9.8c3.8,1.6,8.2-0.2,9.8-4C349.9,35,380,15,413.5,15c45.9,0,83.2,37.3,83.2,83.2
			c0,62-65.1,121.5-83.2,136.8c-4-3.4-10.3-8.9-17.6-16.1c-0.7-1.5-1.9-2.6-3.3-3.3c-25.9-26.1-62.3-71-62.3-117.4
			c0-4.1-3.4-7.5-7.5-7.5c-4.1,0-7.5,3.4-7.5,7.5c0,33.5,15.8,69.3,47.1,106.7c3.9,4.7,7.9,9.1,11.7,13.2
			c-19.4,5.8-30.5,15.7-30.5,27.6c0,10.1,8.2,18.9,23,24.9c12.7,5.2,29.4,8,47,8c17.6,0,34.3-2.8,47-8c14.8-6,23-14.9,23-24.9
			C483.5,233.9,472.3,223.9,453,218.1z M413.5,263.7c-35.5,0-54.9-11.8-54.9-17.9c0-4,8.8-11.2,27.7-15.2
			c12.7,12.3,22.1,19.7,22.7,20.1c1.4,1,3,1.6,4.6,1.6s3.2-0.5,4.6-1.6c0.6-0.5,10-7.8,22.7-20.1c8.4,1.8,15.7,4.4,20.7,7.5
			c4.3,2.6,6.9,5.5,6.9,7.7C468.5,251.8,449.1,263.7,413.5,263.7z"/>
	</g>
</g>
<g class="st0">
	<g>
		<path class="st1" d="M413.5,54.5c-24.1,0-43.7,19.6-43.7,43.7c0,24.1,19.6,43.7,43.7,43.7s43.7-19.6,43.7-43.7
			S437.6,54.5,413.5,54.5z M413.5,126.9c-15.8,0-28.7-12.9-28.7-28.7s12.9-28.7,28.7-28.7c15.8,0,28.7,12.9,28.7,28.7
			C442.2,114,429.4,126.9,413.5,126.9z"/>
	</g>
</g>
<g class="st0">
	<g>
		<path class="st1" d="M316.2,238.2h-3.4c-2.5,0-5,0.2-7.5,0.5c-4.1,0.5-7,4.3-6.5,8.4c0.5,3.8,3.7,6.5,7.4,6.5c0.3,0,0.7,0,1-0.1
			c1.8-0.2,3.6-0.4,5.5-0.4h3.4v0c4.1,0,7.5-3.4,7.5-7.5S320.3,238.2,316.2,238.2z"/>
	</g>
</g>
<g class="st0">
	<g>
		<path class="st1" d="M291.3,463.5C291.3,463.5,291.3,463.5,291.3,463.5l-10,0c-4.1,0-7.5,3.4-7.5,7.5c0,4.1,3.4,7.5,7.5,7.5
			c0,0,0,0,0,0l9.9,0c4.1,0,7.5-3.4,7.5-7.5C298.8,466.8,295.5,463.5,291.3,463.5z"/>
	</g>
</g>
<g class="st0">
	<g>
		<path class="st1" d="M325.1,335.5h-9.9c-4.1,0-7.5,3.4-7.5,7.5c0,4.1,3.4,7.5,7.5,7.5h9.9c4.1,0,7.5-3.4,7.5-7.5
			C332.6,338.9,329.2,335.5,325.1,335.5z"/>
	</g>
</g>
<g class="st0">
	<g>
		<path class="st1" d="M285.3,253.5c-2.8-3-7.6-3.2-10.6-0.4c-2.8,2.6-5.3,5.5-7.6,8.6c-2.4,3.4-1.6,8.1,1.7,10.5
			c1.3,1,2.9,1.4,4.4,1.4c2.3,0,4.6-1.1,6.1-3.1c1.6-2.3,3.5-4.4,5.6-6.3C287.9,261.3,288.1,256.6,285.3,253.5z"/>
	</g>
</g>
<g class="st0">
	<g>
		<path class="st1" d="M331,463.3C331,463.3,331,463.3,331,463.3l-10,0c-4.1,0-7.5,3.4-7.5,7.5c0,4.1,3.4,7.5,7.5,7.5c0,0,0,0,0,0
			l9.9,0c4.1,0,7.5-3.4,7.5-7.5C338.5,466.7,335.1,463.3,331,463.3z"/>
	</g>
</g>
<g class="st0">
	<g>
		<path class="st1" d="M251.7,463.7C251.7,463.7,251.6,463.7,251.7,463.7l-10,0c-4.1,0-7.5,3.4-7.5,7.5c0,4.1,3.4,7.5,7.5,7.5
			c0,0,0,0,0,0l9.9,0c4.1,0,7.5-3.4,7.5-7.5C259.2,467,255.8,463.7,251.7,463.7z"/>
	</g>
</g>
<g class="st0">
	<g>
		<path class="st1" d="M290.8,329.2c-2.4-1.5-4.6-3.2-6.6-5.2c-3-2.9-7.7-2.8-10.6,0.2c-2.9,3-2.8,7.7,0.2,10.6c2.7,2.6,5.8,5,9,7
			c1.2,0.8,2.6,1.2,4,1.2c2.5,0,4.9-1.2,6.4-3.5C295.4,336,294.3,331.4,290.8,329.2z"/>
	</g>
</g>
<g class="st0">
	<g>
		<path class="st1" d="M272.4,302.3c-0.5-2.6-0.8-5.3-0.8-7.9l0-0.4c0-4.1-3.3-7.5-7.4-7.6c0,0-0.1,0-0.1,0c-4.1,0-7.5,3.3-7.5,7.4
			l0,0.6c0,3.6,0.3,7.3,1,10.8c0.7,3.6,3.8,6.1,7.4,6.1c0.5,0,1,0,1.4-0.1C270.5,310.3,273.2,306.4,272.4,302.3z"/>
	</g>
</g>
<g class="st0">
	<g>
		<path class="st1" d="M364.7,335.5h-9.9c-4.1,0-7.5,3.4-7.5,7.5c0,4.1,3.4,7.5,7.5,7.5h9.9c4.1,0,7.5-3.4,7.5-7.5
			C372.2,338.9,368.9,335.5,364.7,335.5z"/>
	</g>
</g>
<g class="st0">
	<g>
		<path class="st1" d="M485.3,350.8c-2.9-2.3-6-4.4-9.2-6.2c-3.6-2-8.2-0.8-10.2,2.9c-2,3.6-0.8,8.2,2.9,10.2c2.5,1.4,5,3.1,7.3,4.9
			c1.4,1.1,3,1.6,4.6,1.6c2.2,0,4.4-1,5.9-2.9C489.1,358.1,488.5,353.3,485.3,350.8z"/>
	</g>
</g>
<g class="st0">
	<g>
		<path class="st1" d="M457.4,468.7c-0.6-4.1-4.4-7-8.5-6.4c-2.5,0.3-5,0.5-7.5,0.5l-1.4,0c-4.1,0-7.5,3.4-7.5,7.5
			c0,4.1,3.4,7.5,7.5,7.5c0,0,0,0,0,0l1.4,0c3.2,0,6.4-0.2,9.5-0.7C455.1,476.6,458,472.8,457.4,468.7z"/>
	</g>
</g>
<g class="st0">
	<g>
		<path class="st1" d="M490.5,447.6c-2.9-3-7.6-3.1-10.6-0.3c-2.1,2-4.4,3.9-6.8,5.5c-3.4,2.4-4.3,7-1.9,10.4
			c1.5,2.1,3.8,3.2,6.2,3.2c1.5,0,3-0.4,4.3-1.3c3-2.1,5.9-4.5,8.6-7C493.3,455.3,493.4,450.6,490.5,447.6z"/>
	</g>
</g>
<g class="st0">
	<g>
		<path class="st1" d="M505.2,411.1c-4.1-0.8-8,1.9-8.8,6c-0.5,2.9-1.3,5.7-2.3,8.4c-1.4,3.9,0.6,8.2,4.6,9.6
			c0.8,0.3,1.7,0.4,2.5,0.4c3.1,0,6-1.9,7.1-5c1.2-3.5,2.2-7.1,2.9-10.7C511.9,415.8,509.2,411.9,505.2,411.1z"/>
	</g>
</g>
<g class="st0">
	<g>
		<path class="st1" d="M509.6,387c-1-3.5-2.3-7-3.9-10.4c-1.8-3.8-6.2-5.4-10-3.6c-3.8,1.8-5.4,6.2-3.6,10c1.2,2.6,2.3,5.4,3.1,8.2
			c0.9,3.3,3.9,5.4,7.2,5.4c0.7,0,1.4-0.1,2.1-0.3C508.5,395.1,510.8,391,509.6,387z"/>
	</g>
</g>
<g class="st0">
	<g>
		<path class="st1" d="M404.4,335.5h-9.9c-4.1,0-7.5,3.4-7.5,7.5c0,4.1,3.4,7.5,7.5,7.5h9.9c4.1,0,7.5-3.4,7.5-7.5
			C411.9,338.9,408.5,335.5,404.4,335.5z"/>
	</g>
</g>
<g class="st0">
	<g>
		<path class="st1" d="M370.7,463.1C370.7,463.1,370.6,463.1,370.7,463.1l-10,0c-4.1,0-7.5,3.4-7.5,7.5c0,4.1,3.4,7.5,7.5,7.5
			c0,0,0,0,0,0l9.9,0c4.1,0,7.5-3.4,7.5-7.5C378.2,466.5,374.8,463.1,370.7,463.1z"/>
	</g>
</g>
<g class="st0">
	<g>
		<path class="st1" d="M444.4,335.6c-1.1,0-2.1-0.1-3.2-0.1h-7.1c-4.1,0-7.5,3.4-7.5,7.5c0,4.1,3.4,7.5,7.5,7.5h7.1v0
			c0.8,0,1.7,0,2.5,0.1c0.1,0,0.2,0,0.3,0c4,0,7.3-3.1,7.5-7.2C451.7,339.3,448.5,335.7,444.4,335.6z"/>
	</g>
</g>
<g class="st0">
	<g>
		<path class="st1" d="M410.3,463C410.3,463,410.3,463,410.3,463l-10,0c-4.1,0-7.5,3.4-7.5,7.5c0,4.1,3.4,7.5,7.5,7.5c0,0,0,0,0,0
			l9.9,0c4.1,0,7.5-3.4,7.5-7.5C417.8,466.3,414.5,463,410.3,463z"/>
	</g>
</g>
</svg>
