<?xml version="1.0" encoding="utf-8"?>
<!-- Generator: Adobe Illustrator 24.0.1, SVG Export Plug-In . SVG Version: 6.00 Build 0)  -->
<svg version="1.1" id="Capa_1" xmlns="http://www.w3.org/2000/svg" xmlns:xlink="http://www.w3.org/1999/xlink" x="0px" y="0px"
	 viewBox="0 0 512 512" style="enable-background:new 0 0 512 512;" xml:space="preserve">
<style type="text/css">
	.st0{fill:#FFFFFF;}
</style>
<g>
	<g>
		<path class="st0" d="M504.9,188l-79.7-58c-0.4-0.8-1-1.5-1.6-2.1l-98-98c-1.9-1.9-4.4-2.9-7.1-2.9h-223c-5.5,0-10,4.5-10,10v94
			L7.1,188C3,189.3,0,193.1,0,197.6V475c0,5.5,4.5,10,10,10h492c5.5,0,10-4.5,10-10V197.6C512,193.1,509,189.3,504.9,188z
			 M426.5,155.7l58,42.2l-58,42.2V155.7z M328.5,61.1l63.9,63.9h-63.9V61.1z M105.5,47h203v88c0,5.5,4.5,10,10,10h88v109.7
			l-95.2,69.2l0,0l-49.5-36c-3.5-2.6-8.3-2.6-11.8,0l-49.5,36l0,0l-95.2-69.2V47H105.5z M85.5,155.7v84.4l-58-42.2L85.5,155.7z
			 M20,217.2l163.7,119.1L20,455.4V217.2z M40.7,465L256,308.4L471.3,465H40.7z M492,455.4L328.3,336.3L492,217.2V455.4z"/>
	</g>
</g>
<g>
	<g>
		<path class="st0" d="M376.4,189h-238c-5.5,0-10,4.5-10,10s4.5,10,10,10h237.9c5.5,0,10-4.5,10-10S381.9,189,376.4,189z"/>
	</g>
</g>
<g>
	<g>
		<path class="st0" d="M376.3,239h-48.6c-5.5,0-10,4.5-10,10s4.5,10,10,10h48.6c5.5,0,10-4.5,10-10S381.8,239,376.3,239z"/>
	</g>
</g>
<g>
	<g>
		<path class="st0" d="M295.1,239H295c-5.5,0-10,4.5-10,10s4.5,10,10,10h0.1c5.5,0,10-4.5,10-10S300.6,239,295.1,239z"/>
	</g>
</g>
<g>
	<g>
		<path class="st0" d="M263,239H138.4c-5.5,0-10,4.5-10,10s4.5,10,10,10H263c5.5,0,10-4.5,10-10S268.5,239,263,239z"/>
	</g>
</g>
<g>
	<g>
		<path class="st0" d="M257.4,139h-119c-5.5,0-10,4.5-10,10s4.5,10,10,10h119c5.5,0,10-4.5,10-10S262.9,139,257.4,139z"/>
	</g>
</g>
<g>
	<g>
		<path class="st0" d="M224.7,89h-86.3c-5.5,0-10,4.5-10,10s4.5,10,10,10h86.3c5.5,0,10-4.5,10-10S230.2,89,224.7,89z"/>
	</g>
</g>
<g>
	<g>
		<path class="st0" d="M257.4,89h-0.1c-5.5,0-10,4.5-10,10s4.5,10,10,10h0.1c5.5,0,10-4.5,10-10S262.9,89,257.4,89z"/>
	</g>
</g>
</svg>
