<svg xmlns="http://www.w3.org/2000/svg" viewBox="0 0 96 96"><defs><style>.cls-1{fill:#feb729;}.cls-2{fill:#6d98ab;}.cls-3{fill:#fdfcf6;}.cls-4{fill:#b2ba36;}.cls-5{fill:#85b24a;}.cls-6{fill:#73ae51;}</style></defs><title>nchandiLogo_1</title><g id="Layer_2" data-name="Layer 2"><g id="Layer_1-2" data-name="Layer 1"><g id="Layer_1-2-2" data-name="Layer 1-2"><path class="cls-1" d="M63.43,46.43a5.21,5.21,0,0,1-1.37.46c-3.9,0-7.8,0-11.89,0,0-3,0-6,0-8.92s.43-5.74-.86-8.64a23.34,23.34,0,0,0-2.74.56,8.39,8.39,0,0,1-4.23.51,6.64,6.64,0,0,1-5.41-5.54,6.71,6.71,0,0,1,6.9-7.81,21.34,21.34,0,0,1,3.26.73c.57.14,1.12.33,1.62.49a1.49,1.49,0,0,0,1.17-1.44c.09-1.06.27-2.15.28-3.19,0-4.18,0-8.36,0-12.66H96V46.73a6.73,6.73,0,0,1-1.08.17H84.48c-1.68,0-1.91-.33-1.59-2,1.37-7.24-5.45-13.62-12.36-11.45-3.51,1.11-6.33,3.18-7.26,7a16,16,0,0,0-.13,3.8A20.56,20.56,0,0,0,63.43,46.43Zm18.22-23.3,0-.39a6.79,6.79,0,0,0,1.68-.16c1.18-.43,2.12-1.64,3.6-1.14l5.14-2.76C90.69,16.07,89.37,13.61,88,11c-1.47.8-2.78,1.5-4.07,2.23a5.82,5.82,0,0,0-1.45.94c-1,1-1.47,1.18-2.74.61-.86-.39-1.74-.79-2.57-1.26a3,3,0,0,0-2.6-.16c-2.46.78-5,1.48-7.43,2.22A2,2,0,0,1,65,15a7,7,0,0,0-1.22-1.15c-1.09-.67-2.22-1.27-3.36-1.85a5,5,0,0,0-1.16-.25c-1.12,2.52-2.74,4.7-3.73,7.42,2.23.73,3.73,2.67,6.16,2.65a2.25,2.25,0,0,1,.86.36,26,26,0,0,1,2.81,1.5c.93.64,2.15,1,2.57,2.25l1.39.21c.26.86.77,1.24,1.49,1l1,1.23L75,26.86c.56.3,1.18,1.18,2.31.55l.43-1.14,1.61.47c.27-.56.54-1.1.86-1.72a1.7,1.7,0,0,0,.62.22c.43,0,1,.06,1.29-.18a1,1,0,0,0,0-1.43c-.13-.15-.25-.33-.37-.5Z"/><path class="cls-2" d="M49.6,95.8V82.94c.53-.68,1.09-.41,1.67-.37a26.52,26.52,0,0,0,4.63,0c2.39-.3,4-2,5.3-3.81,3.57-5.06,2-11.11-2.8-14.65a7.47,7.47,0,0,0-6.24-1.23,13,13,0,0,1-2.33.15c-.37-1.29-.48-9.45-.21-13.13.39,0,.8-.09,1.21-.09H62.24c1.32,0,2.64-.17,3.94-.26l.69-1.14c-.33-1.29-.63-2.55-1-3.78a6.69,6.69,0,1,1,13.18-2.09,9.68,9.68,0,0,1-.66,4.08A19.58,19.58,0,0,0,78,48.94a5.6,5.6,0,0,0,3.33.9H95.36V95.63C94.29,96,53.11,96.15,49.6,95.8Zm28-32.33.74-.78c3.77,3.75,7.43,7.55,11.24,11.22L91,72.44l-13-13-13,13,1.69,1.34c.3-.09.42-.09.5-.16l3.25-3.1c0,.8-.12,1.59-.12,2.39V89h5.52V84.14h4.21V89H86V71.55a1.27,1.27,0,0,0-.2-.31c-2.34-2.36-4.67-4.73-7-7A5.69,5.69,0,0,0,77.57,63.47Z"/><path class="cls-1" d="M.2,49.57H12.9c.67.43.51,1,.43,1.58-.27,2.34-.47,4.69.82,6.87a10.21,10.21,0,0,0,15.18,3,8.54,8.54,0,0,0,3.53-5.16A20.09,20.09,0,0,0,33,52.19c0-.77-.12-1.55-.18-2.25,1.29-.47,11-.58,13.25-.21v12.5a26.34,26.34,0,0,0,.23,3.2c.16,1.32.81,1.68,2.1,1.32,1.07-.31,2.15-.61,3.23-.81a6.48,6.48,0,0,1,7.56,5,6.63,6.63,0,0,1-8.22,8c-.69-.24-1.42-.4-2.14-.61-1.38-.43-2.6-.15-2.61,1.7,0,4.56-.12,9.11-.18,13.66V95.5H.33C0,94.39-.15,52.93.2,49.57Zm37.47,30a13.48,13.48,0,1,0,0,.09Z"/><path class="cls-2" d="M.83,46V.4L1,.21S1.1.12,1.14.12A9.23,9.23,0,0,1,2.42,0q22,0,44,.06c.1,0,.19.1.38.21a3.86,3.86,0,0,1,.11.68V11.42c0,.77,0,1.52-1,2-4.32-.89-8.32-.37-11,3.81a9.93,9.93,0,0,0-.32,11.08C37.2,32.7,41.14,34,45.86,32.74a1.6,1.6,0,0,1,1,1.63V46a13.36,13.36,0,0,1-1.55.17c-4,0-8,0-12,0-.65,0-1.29.08-1.93.06-1,0-1.75.37-1.94,1.08a35.41,35.41,0,0,1,1.06,5.43c.15,3.37-2.14,5.93-5.74,6.64a6.76,6.76,0,0,1-7.1-4.08,7.41,7.41,0,0,1,.08-5.77c1-2.67.61-3.35-2.27-3.37-4.23,0-8.46,0-12.69,0C2.16,46.16,1.54,46.06.83,46ZM6,13v21.6c-.41.05-.72.12-1,.13a1,1,0,0,0-1,.87v.11a1,1,0,0,0,.87,1.11h0a6.11,6.11,0,0,0,1.28.13H30.06a6.52,6.52,0,0,0,1.23-.18,1,1,0,0,0,.86-1.09.19.19,0,0,0,0-.08.93.93,0,0,0-1-.86c-.35,0-.71-.11-1-.16-.35-2-.25-20.47.09-21.59a2.07,2.07,0,0,1,.43-.1c.75,0,1.44-.09,1.47-1.06,0-.65-.51-1-1.47-1.17H5.92a2.47,2.47,0,0,0-1.23.22c-.35.22-.76.69-.74,1s.5.71.86.93A3.42,3.42,0,0,0,6,13Z"/><path class="cls-2" d="M81.66,23.13a6.13,6.13,0,0,0,.38.51,1,1,0,0,1,0,1.43,2.34,2.34,0,0,1-1.29.18,2.06,2.06,0,0,1-.63-.22l-.85,1.72-1.61-.47-.43,1.14c-1.13.63-1.75-.26-2.31-.56l-3.22,1.55-1-1.23c-.72.21-1.24-.16-1.49-1l-1.39-.21c-.43-1.29-1.63-1.61-2.57-2.25a26.16,26.16,0,0,0-2.81-1.5,2.25,2.25,0,0,0-.86-.36c-2.43,0-3.94-1.92-6.16-2.65,1-2.72,2.61-4.9,3.73-7.42a5.23,5.23,0,0,1,1.16.25c1.14.58,2.27,1.18,3.36,1.85A7,7,0,0,1,65,15a2,2,0,0,0,2.14.59c2.48-.74,5-1.44,7.43-2.23a3,3,0,0,1,2.6.17c.83.47,1.71.86,2.57,1.26,1.29.57,1.75.43,2.73-.61a6.07,6.07,0,0,1,1.46-.94c1.29-.73,2.6-1.43,4.07-2.23,1.4,2.58,2.73,5.06,4.14,7.67L87,21.45c-1.48-.5-2.42.69-3.6,1.14a6.79,6.79,0,0,1-1.68.16c0-.1,0-.25-.08-.3-2.23-1.86-4.45-3.72-6.72-5.53-.17-.14-.61,0-.92.08l-1.65.92-.64.32-.64.33-1.25.35-1.29-.09a1.75,1.75,0,0,0-.94-1.24c0,.86,0,1.53.93,1.64a.82.82,0,0,0,1.29,0l1.28-.62.64-.33.64-.32,1.58-.69c1.06.79,2.12,1.57,3.17,2.37C78.64,20.81,80.14,22,81.66,23.13ZM72.6,24.24h-.17l0,.57h.13ZM71.12,23h.19l0-.57h-.18Zm5.9,2.5-.06.09h.1Zm-.65-.19,0-.08h-.08Zm3.22-.77-.07.1h.11ZM79,24.18l-.06.08H79Z"/><path class="cls-1" d="M81.66,23.13c-1.51-1.16-3-2.32-4.53-3.47-1-.8-2.11-1.58-3.17-2.37V17c.32,0,.75-.22.92-.08,2.27,1.81,4.5,3.67,6.72,5.53.07,0,.06.2.08.3Z"/><path class="cls-1" d="M77.57,63.47a5.69,5.69,0,0,1,1.21.72c2.37,2.33,4.72,4.69,7,7a1.06,1.06,0,0,1,.21.31V89H80.14V84.14h-4.2V89H70.42V72.92c0-.8.08-1.59.13-2.39l.06,0,.48-.34h0l.34-.33h0l.33-.34h0l.33-.33h0l.34-.34h0l.33-.33h0l.34-.34h0l.33-.33h0l.34-.34h0l.33-.33h0l.33-.34h0l.34-.33h0l.33-.34h0l.34-.33h0l.33-.34h0l.34-.33h0l.33-.34h0l.33-.33h0l.34-.34h0l.33-.33h0l.34-.49Zm-.18,9.74H73.32V76.9h4.07Zm1.83,5.37v3.71h4V78.58Zm-5.83,3.7h4V78.62h-4Zm5.8-9.12v3.69h4V73.16ZM79,66,77.55,66c-.06.71-.11,1.28-.16,1.89l-2,.12v1.49l2,.13.21,1.88L79,71.35c.06-.65.1-1.16.15-1.74L81,69.43,80.93,68l-1.8-.22c0-.6-.06-1.07-.09-1.75Z"/><path class="cls-1" d="M70.59,70.48l-.06,0-3.26,3.1c-.07.07-.19.07-.5.16l-1.68-1.34,13-13,13,13-1.47,1.45c-3.81-3.66-7.47-7.46-11.25-11.22l-.73.8-.06.08-.34.48h0l-.33.34h0l-.34.33h0l-.33.34h0l-.33.34h0l-.34.33h0l-.33.34h0l-.34.33h0l-.33.34h0l-.34.33h0l-.33.34h0l-.33.33h0l-.34.34h0l-.33.33h0l-.34.34h0l-.33.33h0l-.34.34h0l-.33.33h0l-.33.34h0l-.34.33h0Z"/><path class="cls-3" d="M37.67,79.54A13.52,13.52,0,0,1,24.14,93.06h-.09A13.52,13.52,0,1,1,37.67,79.54Zm-3.92,6.13.6-.13-.18-.81a5.86,5.86,0,0,0,.57-.92,12,12,0,0,0,.69-6,10.68,10.68,0,0,0-5.53-8.16c-4.35-2.44-8.66-2-12.62.9C12.53,74.1,11.53,81,14.62,85.36l.13.3c2.07,3.9,5.68,5.32,9.69,5.29A10.48,10.48,0,0,0,33.75,85.67Z"/><path class="cls-1" d="M6,13a3.31,3.31,0,0,1-1.17-.16c-.37-.22-.86-.6-.86-.93a1.6,1.6,0,0,1,.74-1,2.37,2.37,0,0,1,1.23-.22H30.68c1,.11,1.49.52,1.47,1.17,0,1-.72,1.06-1.47,1.06a2.07,2.07,0,0,0-.43.1c-.34,1.11-.43,19.58-.09,21.58a8.05,8.05,0,0,0,1,.16.94.94,0,0,1,1,.86,1,1,0,0,1-.77,1.16l-.08,0a6.79,6.79,0,0,1-1.26.16H6.11a6.12,6.12,0,0,1-1.28-.14,1,1,0,0,1-.91-1.08h0a1,1,0,0,1,1-1H5a9.18,9.18,0,0,0,1-.13Zm4.22,21.42V13.18H8.47V34.37Zm2.44-21.26V34.33h1.78V13.12Zm13.18,0V34.37a7.47,7.47,0,0,0,.86.06c.24,0,.59-.08.86-.12V13.12ZM18,23.79l1.26,2.27.14,1.68,1.53.25.46-2.55A2,2,0,0,0,22,22.86a1.94,1.94,0,0,0-2-1.1C18.8,21.79,18.34,22.6,18,23.79Zm.92-5.58V13.16H17.14v5Zm4.46,0V13.05l-1.75.09v5.07ZM18.9,34.37V31.48l-1.76.08v2.81Zm2.69.08,1.81-.08V31.62H21.59Z"/><path class="cls-4" d="M68.5,19.23c-.94-.12-.9-.78-.93-1.65a1.81,1.81,0,0,1,1,1.25Z"/><path class="cls-5" d="M74,17v.3L72.38,18l-.06-.07Z"/><path class="cls-1" d="M68.5,19.23v-.4l1.29.09v.33A.82.82,0,0,1,68.5,19.23Z"/><path class="cls-5" d="M69.8,19.25v-.33l1.25-.36.06.07Z"/><path class="cls-4" d="M72.6,24.24v.57h-.13l0-.56Z"/><path class="cls-5" d="M71.12,23l0-.56h.18l0,.57Z"/><path class="cls-5" d="M72.38,18l-.64.33-.07-.08.65-.32Z"/><path class="cls-5" d="M71,18.56l.63-.33.07.08-.64.32Z"/><polygon class="cls-6" points="77.02 25.45 77.06 25.55 76.96 25.54 77.02 25.45"/><polygon class="cls-6" points="76.37 25.26 76.34 25.17 76.42 25.18 76.37 25.26"/><polygon class="cls-6" points="79.59 24.48 79.63 24.59 79.52 24.58 79.59 24.48"/><polygon class="cls-6" points="78.96 24.17 78.99 24.26 78.9 24.25 78.96 24.17"/><path class="cls-2" d="M77.38,73.21V76.9H73.32V73.21Z"/><path class="cls-2" d="M79.21,78.58h4v3.71h-4Z"/><path class="cls-2" d="M73.39,82.28V78.62h4v3.64Z"/><path class="cls-2" d="M79.18,73.16h4v3.69h-4Z"/><path class="cls-2" d="M79,66c0,.68.06,1.15.09,1.75l1.8.22L81,69.43l-1.85.18c0,.58-.09,1.09-.14,1.74l-1.44.12-.21-1.88-2-.13V68l2-.12c0-.62.1-1.18.16-1.89Z"/><path class="cls-6" d="M74.6,66.61l.33-.33Z"/><path class="cls-6" d="M74.28,66.93l.33-.33Z"/><path class="cls-6" d="M74,67.26l.34-.34Z"/><path class="cls-6" d="M73.63,67.58l.34-.34Z"/><path class="cls-6" d="M73.31,67.9l.34-.33Z"/><path class="cls-6" d="M73,68.22l.33-.33Z"/><path class="cls-6" d="M76.2,65l.34-.33Z"/><path class="cls-6" d="M72.67,68.55l.33-.34Z"/><path class="cls-6" d="M76.53,64.68l.33-.34Z"/><path class="cls-6" d="M72.35,68.87l.33-.34Z"/><path class="cls-6" d="M76.85,64.36l.33-.34Z"/><path class="cls-6" d="M71.7,69.51l.34-.33Z"/><path class="cls-6" d="M71.38,69.83l.34-.33Z"/><path class="cls-6" d="M71.06,70.16l.34-.34Z"/><path class="cls-6" d="M70.59,70.48l.48-.34Z"/><path class="cls-6" d="M77.17,64l.33-.48Z"/><path class="cls-6" d="M75.24,66l.33-.34Z"/><path class="cls-6" d="M75.56,65.65l.34-.34Z"/><path class="cls-6" d="M74.92,66.29l.33-.33Z"/><path class="cls-6" d="M75.88,65.32l.34-.33Z"/><path class="cls-6" d="M72,69.19l.33-.34Z"/><path class="cls-2" d="M14.75,85.64l-.13-.3,9.77-17a8.35,8.35,0,0,1,.66.81c1.76,3.06,3.48,6.13,5.25,9.17,1.26,2.15,2.57,4.3,3.86,6.45l.18.81-.6.13Z"/><path class="cls-1" d="M34.17,84.73c-1.29-2.15-2.61-4.27-3.86-6.44-1.77-3.05-3.5-6.12-5.25-9.18a8.6,8.6,0,0,0-.67-.8l-9.77,17C11.53,81,12.53,74.07,17.28,70.57c4-2.91,8.27-3.34,12.62-.9a10.73,10.73,0,0,1,5.53,8.16,12,12,0,0,1-.69,6A4.79,4.79,0,0,1,34.17,84.73Z"/><path class="cls-1" d="M14.75,85.64l19,0a10.43,10.43,0,0,1-9.32,5.26C20.43,91,16.82,89.54,14.75,85.64Z"/><path class="cls-2" d="M10.22,34.37H8.47V13.18h1.75Z"/><path class="cls-2" d="M12.66,13.12h1.78V34.34H12.66Z"/><path class="cls-2" d="M25.84,13.12h1.75V34.31a6.21,6.21,0,0,1-.85.12,5.34,5.34,0,0,1-.86-.06Z"/><path class="cls-2" d="M18,23.79c.35-1.19.8-2,2.07-2a1.94,1.94,0,0,1,2,1.1,2,2,0,0,1-.65,2.57L20.93,28l-1.53-.26-.14-1.67Z"/><path class="cls-2" d="M18.92,18.19H17.14v-5h1.78Z"/><path class="cls-2" d="M23.38,18.21H21.62V13.14l1.76-.09Z"/><path class="cls-2" d="M18.9,34.37H17.14V31.56l1.74-.08Z"/><path class="cls-2" d="M21.59,34.46V31.62H23.4v2.75Z"/></g></g></g></svg>
