<svg xmlns="http://www.w3.org/2000/svg" viewBox="0 0 823.36 23.14"><defs><style>.cls-1{fill:#d8d8d8;}.cls-2{fill:#d9d9d9;}</style></defs><title>page_seperator</title><g id="Layer_2" data-name="Layer 2"><g id="Layer_1-2" data-name="Layer 1"><path class="cls-1" d="M411.49,23.14c-6.61,0-11.34-4.61-11.38-11.16,0-6.4,5.28-12.34,11.28-12,7.23.45,11.47,4.75,11.82,12C423.5,17.89,417.69,23.11,411.49,23.14Z"/><path class="cls-1" d="M376.81,22.4c-6.21,0-11.43-4.84-11-10.67C366.21,5.18,370.09.9,377,.69c5.45-.16,10.9,5.36,11,10.73A10.88,10.88,0,0,1,376.81,22.4Z"/><path class="cls-1" d="M446.05,22.4c-6.42,0-10.69-4.33-10.72-10.79A10.81,10.81,0,0,1,446.18.66a10.91,10.91,0,0,1,10.93,10.88C457.25,17.48,452.42,23.05,446.05,22.4Z"/><path class="cls-1" d="M487.76,11.47A10.58,10.58,0,0,1,477.5,22.22c-5.64.16-10.72-5-10.66-10.77.06-5.27,5.09-10.09,10.5-10.07A10.42,10.42,0,0,1,487.76,11.47Z"/><path class="cls-1" d="M355.93,12.09c.71,5.22-5.4,10.3-10.34,10.15-4.7-.14-10.39-4.75-10-10.56C336,5.49,339.88,1.3,346,1.37S356,5.74,355.93,12.09Z"/><path class="cls-1" d="M508.4,21.6c-5.14,0-10-4.93-10-10.1s4.38-9.39,10-9.39,10,4.1,10,9.4S513.54,21.6,508.4,21.6Z"/><path class="cls-1" d="M324.44,11.39c.05,5.82-4.08,10.15-9.7,10.18s-9.81-4.28-9.79-10.08a9.23,9.23,0,0,1,9.51-9.38C320.24,2,324.39,5.9,324.44,11.39Z"/><path class="cls-1" d="M283.78,20.87c-5.13-.05-9.52-4.24-9.5-9.07,0-5,4.73-9.73,9.53-9.56s9.12,4.76,9.1,9.62A9.51,9.51,0,0,1,283.78,20.87Z"/><path class="cls-1" d="M530.49,11.56c-.51-5.48,5-9.41,9.24-9.2,4.57.22,9.08,4.06,8.83,9.3-.27,5.54-3.74,9.25-9.14,9.21S530.42,17.07,530.49,11.56Z"/><path class="cls-1" d="M570.65,20.14c-5,0-8.64-3.39-8.67-8.22a8.61,8.61,0,1,1,17.22-.54A8.27,8.27,0,0,1,570.65,20.14Z"/><path class="cls-1" d="M252.41,20.14a8.46,8.46,0,0,1-8.66-8.49C243.7,7.32,248,3,252.45,2.93c4.59-.05,8.88,4.28,8.88,8.93S257.31,20.17,252.41,20.14Z"/><path class="cls-1" d="M601.68,3.64a8.28,8.28,0,0,1,8.17,8c-.05,4.2-3.92,8.22-8,8.33s-8.24-3.86-8.32-8A8.15,8.15,0,0,1,601.68,3.64Z"/><path class="cls-1" d="M229.28,12a8,8,0,0,1-8.2,7.88c-4.47-.27-7.63-3.84-7.56-8.52a7.58,7.58,0,0,1,8.2-7.7C226.39,3.83,229.42,7.17,229.28,12Z"/><path class="cls-1" d="M640.41,11.4A8,8,0,0,1,633,19.28c-3.9.12-7.85-3.6-7.9-7.43a7.34,7.34,0,0,1,7.23-7.48C636.37,4.22,640.32,7.65,640.41,11.4Z"/><path class="cls-1" d="M190.22,4.37c4.37,0,7.5,2.9,7.56,7.06a7.61,7.61,0,0,1-7.33,7.89c-3.87.09-7.59-3.68-7.62-7.73S185.88,4.41,190.22,4.37Z"/><path class="cls-1" d="M166.23,11.59a7,7,0,0,1-7.13,7,7.07,7.07,0,0,1-6.87-6.93c.08-3.5,3.59-7.06,7-7.07S166.24,8.26,166.23,11.59Z"/><path class="cls-1" d="M657.14,12c-.07-4,2.79-7.26,6.38-7.35a7,7,0,0,1,.29,14A6.89,6.89,0,0,1,657.14,12Z"/><path class="cls-1" d="M701.31,11.72a5.91,5.91,0,0,1-6,6.15c-3.83.12-6.58-2.37-6.6-6,0-3.35,3-6.62,6.24-6.67S701.24,8.35,701.31,11.72Z"/><path class="cls-1" d="M128.08,17.88c-3.69,0-6-2.37-6-6.12s2.68-6.57,6.21-6.48c3.1.08,6.27,3.24,6.3,6.28A6.65,6.65,0,0,1,128.08,17.88Z"/><path class="cls-1" d="M725.78,17.14a5.74,5.74,0,0,1-5.6-5.72,5.83,5.83,0,0,1,11.64.52A5.49,5.49,0,0,1,725.78,17.14Z"/><path class="cls-1" d="M96.92,6a5.7,5.7,0,0,1,5.7,5.68c0,3.41-1.89,5.35-5.28,5.49-3.64.14-5.88-1.83-5.92-5.22A5.76,5.76,0,0,1,96.92,6Z"/><path class="cls-1" d="M60.75,11.6a5.47,5.47,0,0,1,5.12-4.94,4.92,4.92,0,0,1,5.24,5A5.55,5.55,0,0,1,65.91,17,5.65,5.65,0,0,1,60.75,11.6Z"/><path class="cls-1" d="M757.11,6.66A4.73,4.73,0,0,1,762,11.91,5.05,5.05,0,1,1,752,11.48,5.14,5.14,0,0,1,757.11,6.66Z"/><path class="cls-1" d="M35,7.38a4.51,4.51,0,0,1,4.52,4.45A4.63,4.63,0,0,1,35,16.29a5.35,5.35,0,0,1-4.79-4.83C30.22,9.11,32.35,7.31,35,7.38Z"/><path class="cls-1" d="M783.82,11.66A4.09,4.09,0,0,1,788.4,7.4a4.31,4.31,0,0,1,4.3,4.26,4.63,4.63,0,0,1-4.48,4.58A4.46,4.46,0,0,1,783.82,11.66Z"/><path class="cls-2" d="M823.35,11.58a4.12,4.12,0,0,1-3.7,4,3.86,3.86,0,0,1-4.29-3.67,4.15,4.15,0,0,1,3.81-4.24A4.3,4.3,0,0,1,823.35,11.58Z"/><path class="cls-1" d="M3.74,15.59A3.44,3.44,0,0,1,0,11.86,4.25,4.25,0,0,1,3.91,7.63c1.74,0,4,2.52,3.92,4.37A4.08,4.08,0,0,1,3.74,15.59Z"/></g></g></svg>